<svg xmlns="http://www.w3.org/2000/svg" width="118.03" height="11.03" viewBox="0 0 118.03 11.03"><defs><style>.cls-1{fill:#fff;}.cls-2{fill:#ffde52;}.cls-3{fill:#33302b;}</style></defs><title>Asset 1</title><g id="Layer_2" data-name="Layer 2"><g id="Header"><g id="logo"><path class="cls-1" d="M34.36,7a2.56,2.56,0,0,1-.13.86,1.9,1.9,0,0,1-.36.63,1.84,1.84,0,0,1-.56.43,3.34,3.34,0,0,1-.72.26,5.43,5.43,0,0,1-.84.13q-.45,0-.92,0H24.67V2.54L23.38.81h7.35q.36,0,.73,0a4.42,4.42,0,0,1,.7.11,2.86,2.86,0,0,1,.62.23,1.71,1.71,0,0,1,.5.39,1.75,1.75,0,0,1,.33.58,2.41,2.41,0,0,1,.12.8,2,2,0,0,1-.41,1.31A2.11,2.11,0,0,1,32,4.92a4.42,4.42,0,0,1,1.06.19,2,2,0,0,1,.72.4,1.48,1.48,0,0,1,.41.61A2.49,2.49,0,0,1,34.36,7ZM31.5,3.32a1,1,0,0,0,0-.31.58.58,0,0,0-.18-.26,1,1,0,0,0-.35-.18,2,2,0,0,0-.57-.07H27V4.11h3.38A2.17,2.17,0,0,0,30.92,4a1,1,0,0,0,.35-.17.54.54,0,0,0,.18-.25A.94.94,0,0,0,31.5,3.32ZM32,6.69a1,1,0,0,0-.1-.47A.65.65,0,0,0,31.62,6a1.71,1.71,0,0,0-.54-.13q-.33,0-.8,0H27V7.6h3.31q.46,0,.8,0a1.64,1.64,0,0,0,.54-.13.67.67,0,0,0,.31-.28A1,1,0,0,0,32,6.69Z"/><path class="cls-1" d="M35.28,9.3V.81h8.6V2.62H37.64V4h5.92V5.83H37.64V7.49H44V9.3Z"/><path class="cls-1" d="M45.16,9.3V.81h8.6V2.62H47.52V4h5.92V5.83H47.52V7.49h6.33V9.3Z"/><path class="cls-1" d="M57.33,9.3H55V.81h5.75A5.59,5.59,0,0,1,62.36,1a2.79,2.79,0,0,1,1.05.54,2,2,0,0,1,.59.85,3.21,3.21,0,0,1,.18,1.11,2.66,2.66,0,0,1-.15.94,2.18,2.18,0,0,1-.41.69,2.43,2.43,0,0,1-.6.49,4,4,0,0,1-.72.33L66.53,11H63.85l-4-4.85h-2.5Zm4.53-5.81a1.2,1.2,0,0,0-.06-.42.58.58,0,0,0-.23-.28,1.14,1.14,0,0,0-.43-.16,3.81,3.81,0,0,0-.67,0H57.33V4.4h3.14a3.8,3.8,0,0,0,.67,0,1.13,1.13,0,0,0,.43-.16.58.58,0,0,0,.23-.28A1.2,1.2,0,0,0,61.86,3.49Z"/><path class="cls-1" d="M65.14,7.86V.81h8.12V2.62H67.43V4.1H73V5.91H67.43v4.54Z"/><path class="cls-1" d="M85.47,5.06A4.42,4.42,0,0,1,85.07,7a3.77,3.77,0,0,1-1.15,1.4,5.26,5.26,0,0,1-1.81.85,9.21,9.21,0,0,1-2.4.29,9.28,9.28,0,0,1-2.4-.29,5.32,5.32,0,0,1-1.83-.85A3.8,3.8,0,0,1,74.32,7a4.36,4.36,0,0,1-.41-1.93,4.36,4.36,0,0,1,.41-1.93,3.8,3.8,0,0,1,1.16-1.4A5.33,5.33,0,0,1,77.31.88a10.15,10.15,0,0,1,4.8,0,5.26,5.26,0,0,1,1.81.85,3.77,3.77,0,0,1,1.15,1.4A4.42,4.42,0,0,1,85.47,5.06Zm-2.32,0A3.1,3.1,0,0,0,83,4.11a2.06,2.06,0,0,0-.54-.85,2.83,2.83,0,0,0-1.05-.61,5.2,5.2,0,0,0-1.7-.23,6.09,6.09,0,0,0-1.22.11,3.7,3.7,0,0,0-.91.3,2.49,2.49,0,0,0-.64.45,2.24,2.24,0,0,0-.41.55,2.29,2.29,0,0,0-.22.61,3.14,3.14,0,0,0-.06.63,3.21,3.21,0,0,0,.06.64,2.28,2.28,0,0,0,.22.61,2.19,2.19,0,0,0,.41.55,2.47,2.47,0,0,0,.64.44,3.79,3.79,0,0,0,.91.3,6.08,6.08,0,0,0,1.22.11,5.2,5.2,0,0,0,1.7-.23,2.83,2.83,0,0,0,1.05-.61A2.06,2.06,0,0,0,83,6,3.1,3.1,0,0,0,83.16,5.06Z"/><path class="cls-1" d="M88.69,9.3H86.4V.81h5.75A5.59,5.59,0,0,1,93.72,1a2.79,2.79,0,0,1,1.05.54,2,2,0,0,1,.59.85,3.21,3.21,0,0,1,.18,1.11,2.66,2.66,0,0,1-.15.94,2.18,2.18,0,0,1-.41.69,2.43,2.43,0,0,1-.6.49,4,4,0,0,1-.72.33L96.45,9.3H93.77L91.2,6.17h-2.5Zm4.53-5.81a1.2,1.2,0,0,0-.06-.42.58.58,0,0,0-.23-.28,1.14,1.14,0,0,0-.43-.16,3.81,3.81,0,0,0-.67,0H88.69V4.4h3.14a3.8,3.8,0,0,0,.67,0,1.13,1.13,0,0,0,.43-.16.58.58,0,0,0,.23-.28A1.2,1.2,0,0,0,93.23,3.49Z"/><path class="cls-1" d="M102.34.59a11.9,11.9,0,0,1,2.32.21,12.79,12.79,0,0,1,2,.55V3.43a7.84,7.84,0,0,0-1.76-.71,9.32,9.32,0,0,0-1.11-.23,8.67,8.67,0,0,0-1.25-.09,7.56,7.56,0,0,0-1.42.12,4.63,4.63,0,0,0-1,.32,2.6,2.6,0,0,0-.71.46,2.24,2.24,0,0,0-.44.56,2.15,2.15,0,0,0-.22.61,3,3,0,0,0-.06.6,3.16,3.16,0,0,0,.05.55,2.23,2.23,0,0,0,.2.59,2.27,2.27,0,0,0,.4.57,2.44,2.44,0,0,0,.68.48,4.21,4.21,0,0,0,1,.34,6.7,6.7,0,0,0,1.4.13l.71,0,.55-.07.47-.11.45-.13v-1H102V4.5h4.86V8.84a10.09,10.09,0,0,1-1,.28q-.57.13-1.17.22t-1.21.14q-.61,0-1.14,0a11.14,11.14,0,0,1-1.6-.11,7.69,7.69,0,0,1-1.43-.34A5.5,5.5,0,0,1,98,8.49a3.85,3.85,0,0,1-.93-.85,3.75,3.75,0,0,1-.6-1.13,4.53,4.53,0,0,1-.21-1.44,4.36,4.36,0,0,1,.22-1.43,3.75,3.75,0,0,1,.62-1.14,4,4,0,0,1,1-.85A5.75,5.75,0,0,1,99.33,1,7.84,7.84,0,0,1,100.77.7,10.89,10.89,0,0,1,102.34.59Z"/><path class="cls-1" d="M108,9.3V.81h10l-1.44,1.81h-6.24V4h5.92V5.83h-5.92V7.49h6.33V9.3Z"/><path class="cls-2" d="M0,1.26H5.72V.88H7.09V0H21V1.44h-.32V2.79s-3.86.07-3.86,2.57,3.63,2.77,3.63,2.77V10H16.23V9.64s-.14-.77-3.13-.77-3.34.68-3.34.68V10H5.58V8.17S9.1,7.88,9.1,5.92c0-1.64-2.7-1.4-2.7-1.4S1.93,4.57.12,2.16A2.32,2.32,0,0,1,0,1.26Z"/><rect class="cls-3" x="8.09" y="0.68" width="11.77" height="0.66"/><rect class="cls-3" x="6.51" y="1.66" width="0.62" height="1.44"/><rect class="cls-3" x="6.22" y="8.6" width="2.97" height="0.43"/><rect class="cls-3" x="16.79" y="8.63" width="2.97" height="0.43"/><path class="cls-3" d="M5.67,2H1.06A4.28,4.28,0,0,0,4,3H5.69Z"/><path class="cls-3" d="M9.94,8.45s.76-.93,3-.93,3,.87,3,.87V7.73a5.76,5.76,0,0,1-1.65-1.92,1.47,1.47,0,0,0-2.77,0A6.12,6.12,0,0,1,9.94,7.73Z"/></g></g></g></svg>