<?xml version="1.0" encoding="utf-8"?>
<!-- Generator: Adobe Illustrator 21.0.2, SVG Export Plug-In . SVG Version: 6.00 Build 0)  -->
<svg version="1.1" id="Layer_1" xmlns="http://www.w3.org/2000/svg" xmlns:xlink="http://www.w3.org/1999/xlink" x="0px" y="0px"
	 viewBox="0 0 100 100" style="enable-background:new 0 0 100 100;" xml:space="preserve">
<style type="text/css">
	.st0{fill:#FFDE52;}
</style>
<path class="st0" d="M33.8,27.8V32h-6.5v1.8h-27c0,0-0.2,2.2,0.6,4.3c8.5,11.4,29.7,11.2,29.7,11.2s12.8-1.2,12.8,6.6
	c0,9.3-16.7,10.7-16.7,10.7V75h19.8v-2c0,0,1.6-3.2,15.8-3.2s14.8,3.6,14.8,3.6V75h19.8v-8.7c0,0-17.2-1.2-17.2-13.1
	C79.7,41.3,98,41,98,41v-6.4h1.5v-6.8H33.8z M19.4,42.3c-9.2,0-14.1-5.1-14.1-5.1h21.9l0.1,5.1C27.3,42.3,26.8,42.3,19.4,42.3z
	 M79.8,68.7h14.1v2H79.8V68.7z M34,42.5h-2.9v-6.8H34V42.5z M43.8,70.6H29.7v-2h14.1V70.6z M75.7,67.6c0,0-3.3-4.1-14-4.1
	s-14.3,4.4-14.3,4.4v-3.4c0,0,4.7-3.6,7.4-9.1c3-6.1,9.6-6.3,13.1,0c3.5,6.3,7.8,9.1,7.8,9.1V67.6z M94.3,34.1H38.6V31h55.7V34.1z"
	/>
</svg>
