<svg xmlns="http://www.w3.org/2000/svg" width="9.51" height="9.51" viewBox="0 0 9.51 9.51"><defs><style>.cls-1{fill:none;stroke:#2b2b2b;stroke-miterlimit:10;stroke-width:0.5px;}</style></defs><title>Asset 3</title><g id="Layer_2" data-name="Layer 2"><g id="content"><path class="cls-1" d="M8.76,3.66h-.7a.28.28,0,0,1-.2-.48l.5-.5a.49.49,0,0,0,0-.7l-.84-.84a.49.49,0,0,0-.7,0l-.5.5a.28.28,0,0,1-.48-.2V.74A.49.49,0,0,0,5.35.25H4.16a.49.49,0,0,0-.49.49v.7a.28.28,0,0,1-.48.2l-.5-.5a.49.49,0,0,0-.7,0L1.15,2a.49.49,0,0,0,0,.7l.5.5a.28.28,0,0,1-.2.48H.74a.49.49,0,0,0-.49.49V5.35a.49.49,0,0,0,.49.49h.7a.28.28,0,0,1,.2.48l-.5.5a.49.49,0,0,0,0,.7L2,8.36a.49.49,0,0,0,.7,0l.5-.5a.28.28,0,0,1,.48.2v.7a.49.49,0,0,0,.49.49H5.35a.49.49,0,0,0,.49-.49v-.7a.28.28,0,0,1,.48-.2l.5.5a.49.49,0,0,0,.7,0l.84-.84a.49.49,0,0,0,0-.7l-.5-.5a.28.28,0,0,1,.2-.48h.7a.49.49,0,0,0,.49-.49V4.16A.49.49,0,0,0,8.76,3.66Zm-4,2.63A1.54,1.54,0,1,1,6.29,4.75,1.54,1.54,0,0,1,4.75,6.29Z"/></g></g></svg>