<svg id="plaid_horiz" xmlns="http://www.w3.org/2000/svg" xmlns:xlink="http://www.w3.org/1999/xlink" width="100" height="100" viewBox="0 0 100 100"><defs><style>.cls-1{fill:none;}.cls-2{fill:#ebaf3c;}.cls-3{fill:#e9662c;}.cls-4{clip-path:url(#clip-path);}.cls-5{clip-path:url(#clip-path-2);}.cls-6{clip-path:url(#clip-path-3);}.cls-7{clip-path:url(#clip-path-4);}.cls-8{clip-path:url(#clip-path-5);}.cls-9{clip-path:url(#clip-path-6);}.cls-10{clip-path:url(#clip-path-7);}.cls-11{clip-path:url(#clip-path-8);}.cls-12{clip-path:url(#clip-path-9);}.cls-13{clip-path:url(#clip-path-10);}.cls-14{clip-path:url(#clip-path-11);}.cls-15{clip-path:url(#clip-path-12);}.cls-16{clip-path:url(#clip-path-13);}.cls-17{clip-path:url(#clip-path-14);}.cls-18{clip-path:url(#clip-path-15);}.cls-19{clip-path:url(#clip-path-16);}.cls-20{clip-path:url(#clip-path-17);}.cls-21{clip-path:url(#clip-path-18);}</style><clipPath id="clip-path"><rect class="cls-1" x="38.1" y="14.29" width="23.81" height="23.81"/></clipPath><clipPath id="clip-path-2"><rect class="cls-1" x="85.71" y="14.29" width="23.81" height="23.81"/></clipPath><clipPath id="clip-path-3"><rect class="cls-1" x="-9.52" y="14.29" width="23.81" height="23.81"/></clipPath><clipPath id="clip-path-4"><rect class="cls-1" x="14.29" y="38.1" width="23.81" height="23.81"/></clipPath><clipPath id="clip-path-5"><rect class="cls-1" x="61.9" y="38.1" width="23.81" height="23.81"/></clipPath><clipPath id="clip-path-6"><rect class="cls-1" x="-33.33" y="38.1" width="23.81" height="23.81"/></clipPath><clipPath id="clip-path-7"><rect class="cls-1" x="14.29" y="-9.52" width="23.81" height="23.81"/></clipPath><clipPath id="clip-path-8"><rect class="cls-1" x="61.9" y="-9.52" width="23.81" height="23.81"/></clipPath><clipPath id="clip-path-9"><rect class="cls-1" x="109.52" y="38.1" width="23.81" height="23.81"/></clipPath><clipPath id="clip-path-10"><rect class="cls-1" x="14.29" y="85.71" width="23.81" height="23.81"/></clipPath><clipPath id="clip-path-11"><rect class="cls-1" x="61.9" y="85.71" width="23.81" height="23.81"/></clipPath><clipPath id="clip-path-12"><rect class="cls-1" x="-33.33" y="85.71" width="23.81" height="23.81"/></clipPath><clipPath id="clip-path-13"><rect class="cls-1" x="109.52" y="85.71" width="23.81" height="23.81"/></clipPath><clipPath id="clip-path-14"><rect class="cls-1" x="109.52" y="-9.52" width="23.81" height="23.81"/></clipPath><clipPath id="clip-path-15"><rect class="cls-1" x="-33.33" y="-9.52" width="23.81" height="23.81"/></clipPath><clipPath id="clip-path-16"><rect class="cls-1" x="38.1" y="61.9" width="23.81" height="23.81"/></clipPath><clipPath id="clip-path-17"><rect class="cls-1" x="85.71" y="61.9" width="23.81" height="23.81"/></clipPath><clipPath id="clip-path-18"><rect class="cls-1" x="-9.52" y="61.9" width="23.81" height="23.81"/></clipPath></defs><title>Artboard 1</title><rect class="cls-2" x="-9.71" y="-9.71" width="119.09" height="119.09"/><rect class="cls-2" x="38.1" y="38.1" width="23.81" height="23.81"/><rect class="cls-3" x="14.29" y="14.29" width="23.81" height="23.81"/><rect class="cls-3" x="61.9" y="14.29" width="23.81" height="23.81"/><rect class="cls-3" x="14.29" y="61.9" width="23.81" height="23.81"/><rect class="cls-3" x="61.9" y="61.9" width="23.81" height="23.81"/><rect class="cls-2" x="-9.52" y="38.1" width="23.81" height="23.81"/><rect class="cls-2" x="85.71" y="38.1" width="23.81" height="23.81"/><rect class="cls-2" x="38.1" y="85.71" width="23.81" height="23.81"/><rect class="cls-2" x="-9.52" y="85.71" width="23.81" height="23.81"/><rect class="cls-2" x="85.71" y="85.71" width="23.81" height="23.81"/><rect class="cls-2" x="38.1" y="-9.52" width="23.81" height="23.81"/><rect class="cls-2" x="-9.52" y="-9.52" width="23.81" height="23.81"/><rect class="cls-2" x="85.71" y="-9.52" width="23.81" height="23.81"/><g class="cls-4"><rect class="cls-3" x="48.69" y="7.01" width="2.62" height="38.36" transform="translate(-3.87 43.03) rotate(-45)"/><rect class="cls-2" x="52.39" y="7.01" width="2.62" height="38.36" transform="translate(-2.79 45.64) rotate(-45)"/><rect class="cls-3" x="41.23" y="7.01" width="2.62" height="38.36" transform="translate(-6.06 37.75) rotate(-45)"/><rect class="cls-2" x="44.93" y="7.01" width="2.62" height="38.36" transform="translate(-4.98 40.37) rotate(-45)"/><rect class="cls-3" x="63.57" y="7.01" width="2.62" height="38.36" transform="translate(0.48 53.55) rotate(-45)"/><rect class="cls-3" x="71.03" y="7.01" width="2.62" height="38.36" transform="translate(2.67 58.82) rotate(-45)"/><rect class="cls-2" x="67.27" y="7.01" width="2.62" height="38.36" transform="translate(1.57 56.17) rotate(-45)"/><rect class="cls-3" x="56.11" y="7.01" width="2.62" height="38.36" transform="translate(-1.7 48.27) rotate(-45)"/><rect class="cls-2" x="59.81" y="7.01" width="2.62" height="38.36" transform="translate(-0.62 50.89) rotate(-45)"/><rect class="cls-3" x="33.81" y="7.01" width="2.62" height="38.36" transform="translate(-8.23 32.5) rotate(-45)"/><rect class="cls-2" x="37.51" y="7.01" width="2.62" height="38.36" transform="translate(-7.15 35.12) rotate(-45)"/><rect class="cls-3" x="26.35" y="7.01" width="2.62" height="38.36" transform="translate(-10.42 27.23) rotate(-45)"/><rect class="cls-2" x="30.05" y="7.01" width="2.62" height="38.36" transform="translate(-9.33 29.85) rotate(-45)"/></g><g class="cls-5"><rect class="cls-3" x="96.31" y="7.01" width="2.62" height="38.36" transform="translate(10.07 76.7) rotate(-45)"/><rect class="cls-2" x="100.01" y="7.01" width="2.62" height="38.36" transform="translate(11.16 79.31) rotate(-45)"/><rect class="cls-3" x="88.85" y="7.01" width="2.62" height="38.36" transform="translate(7.89 71.42) rotate(-45)"/><rect class="cls-2" x="92.55" y="7.01" width="2.62" height="38.36" transform="translate(8.97 74.04) rotate(-45)"/><rect class="cls-3" x="111.19" y="7.01" width="2.62" height="38.36" transform="translate(14.43 87.22) rotate(-45)"/><rect class="cls-3" x="103.73" y="7.01" width="2.62" height="38.36" transform="translate(12.25 81.95) rotate(-45)"/><rect class="cls-2" x="107.43" y="7.01" width="2.62" height="38.36" transform="translate(13.33 84.56) rotate(-45)"/><rect class="cls-3" x="81.43" y="7.01" width="2.62" height="38.36" transform="translate(5.71 66.18) rotate(-45)"/><rect class="cls-2" x="85.13" y="7.01" width="2.62" height="38.36" transform="translate(6.8 68.79) rotate(-45)"/><rect class="cls-3" x="73.97" y="7.01" width="2.62" height="38.36" transform="translate(3.53 60.9) rotate(-45)"/><rect class="cls-2" x="77.67" y="7.01" width="2.62" height="38.36" transform="translate(4.61 63.52) rotate(-45)"/></g><g class="cls-6"><rect class="cls-3" x="1.07" y="7.01" width="2.62" height="38.36" transform="translate(-17.82 9.35) rotate(-45)"/><rect class="cls-2" x="4.77" y="7.01" width="2.62" height="38.36" transform="translate(-16.74 11.97) rotate(-45)"/><rect class="cls-3" x="-6.39" y="7.01" width="2.62" height="38.36" transform="translate(-20.01 4.08) rotate(-45)"/><rect class="cls-2" x="-2.69" y="7.01" width="2.62" height="38.36" transform="translate(-18.92 6.7) rotate(-45)"/><rect class="cls-3" x="15.95" y="7.01" width="2.62" height="38.36" transform="translate(-13.46 19.88) rotate(-45)"/><rect class="cls-3" x="23.41" y="7.01" width="2.62" height="38.36" transform="translate(-11.28 25.15) rotate(-45)"/><rect class="cls-2" x="19.65" y="7.01" width="2.62" height="38.36" transform="translate(-12.38 22.49) rotate(-45)"/><rect class="cls-3" x="8.49" y="7.01" width="2.62" height="38.36" transform="translate(-15.65 14.6) rotate(-45)"/><rect class="cls-2" x="12.19" y="7.01" width="2.62" height="38.36" transform="translate(-14.56 17.22) rotate(-45)"/><rect class="cls-3" x="-13.81" y="7.01" width="2.62" height="38.36" transform="translate(-22.18 -1.17) rotate(-45)"/><rect class="cls-2" x="-10.11" y="7.01" width="2.62" height="38.36" transform="translate(-21.1 1.45) rotate(-45)"/></g><g class="cls-7"><rect class="cls-3" x="24.88" y="30.82" width="2.62" height="38.36" transform="translate(-27.68 33.16) rotate(-45)"/><rect class="cls-2" x="28.58" y="30.82" width="2.62" height="38.36" transform="translate(-26.6 35.78) rotate(-45)"/><rect class="cls-3" x="17.42" y="30.82" width="2.62" height="38.36" transform="translate(-29.87 27.89) rotate(-45)"/><rect class="cls-2" x="21.12" y="30.82" width="2.62" height="38.36" transform="translate(-28.79 30.51) rotate(-45)"/><rect class="cls-3" x="39.76" y="30.82" width="2.62" height="38.36" transform="translate(-23.33 43.69) rotate(-45)"/><rect class="cls-3" x="47.22" y="30.82" width="2.62" height="38.36" transform="translate(-21.14 48.96) rotate(-45)"/><rect class="cls-2" x="43.46" y="30.82" width="2.62" height="38.36" transform="translate(-22.24 46.3) rotate(-45)"/><rect class="cls-3" x="32.3" y="30.82" width="2.62" height="38.36" transform="translate(-25.51 38.41) rotate(-45)"/><rect class="cls-2" x="36" y="30.82" width="2.62" height="38.36" transform="translate(-24.43 41.03) rotate(-45)"/><rect class="cls-3" x="10" y="30.82" width="2.62" height="38.36" transform="translate(-32.04 22.64) rotate(-45)"/><rect class="cls-2" x="13.7" y="30.82" width="2.62" height="38.36" transform="translate(-30.96 25.26) rotate(-45)"/><rect class="cls-3" x="2.54" y="30.82" width="2.62" height="38.36" transform="translate(-34.23 17.37) rotate(-45)"/><rect class="cls-2" x="6.24" y="30.82" width="2.62" height="38.36" transform="translate(-33.14 19.98) rotate(-45)"/></g><g class="cls-8"><rect class="cls-3" x="72.5" y="30.82" width="2.62" height="38.36" transform="translate(-13.74 66.84) rotate(-45)"/><rect class="cls-2" x="76.2" y="30.82" width="2.62" height="38.36" transform="translate(-12.65 69.45) rotate(-45)"/><rect class="cls-3" x="65.04" y="30.82" width="2.62" height="38.36" transform="translate(-15.92 61.56) rotate(-45)"/><rect class="cls-2" x="68.74" y="30.82" width="2.62" height="38.36" transform="translate(-14.84 64.18) rotate(-45)"/><rect class="cls-3" x="87.38" y="30.82" width="2.62" height="38.36" transform="translate(-9.38 77.36) rotate(-45)"/><rect class="cls-3" x="94.84" y="30.82" width="2.62" height="38.36" transform="translate(-7.19 82.63) rotate(-45)"/><rect class="cls-2" x="91.08" y="30.82" width="2.62" height="38.36" transform="translate(-8.29 79.98) rotate(-45)"/><rect class="cls-3" x="79.92" y="30.82" width="2.62" height="38.36" transform="translate(-11.56 72.08) rotate(-45)"/><rect class="cls-2" x="83.62" y="30.82" width="2.62" height="38.36" transform="translate(-10.48 74.7) rotate(-45)"/><rect class="cls-3" x="57.62" y="30.82" width="2.62" height="38.36" transform="translate(-18.1 56.31) rotate(-45)"/><rect class="cls-2" x="61.32" y="30.82" width="2.62" height="38.36" transform="translate(-17.01 58.93) rotate(-45)"/><rect class="cls-3" x="50.16" y="30.82" width="2.62" height="38.36" transform="translate(-20.28 51.04) rotate(-45)"/><rect class="cls-2" x="53.86" y="30.82" width="2.62" height="38.36" transform="translate(-19.2 53.65) rotate(-45)"/></g><g class="cls-9"><rect class="cls-3" x="-7.86" y="30.82" width="2.62" height="38.36" transform="translate(-37.27 10.01) rotate(-45)"/><rect class="cls-3" x="-0.4" y="30.82" width="2.62" height="38.36" transform="translate(-35.09 15.29) rotate(-45)"/><rect class="cls-2" x="-4.16" y="30.82" width="2.62" height="38.36" transform="translate(-36.19 12.63) rotate(-45)"/><rect class="cls-3" x="-15.32" y="30.82" width="2.62" height="38.36" transform="translate(-39.46 4.74) rotate(-45)"/><rect class="cls-2" x="-11.62" y="30.82" width="2.62" height="38.36" transform="translate(-38.37 7.36) rotate(-45)"/></g><g class="cls-10"><rect class="cls-3" x="24.88" y="-16.8" width="2.62" height="38.36" transform="translate(5.99 19.22) rotate(-45)"/><rect class="cls-2" x="28.58" y="-16.8" width="2.62" height="38.36" transform="translate(7.07 21.83) rotate(-45)"/><rect class="cls-3" x="17.42" y="-16.8" width="2.62" height="38.36" transform="translate(3.8 13.94) rotate(-45)"/><rect class="cls-2" x="21.12" y="-16.8" width="2.62" height="38.36" transform="translate(4.89 16.56) rotate(-45)"/><rect class="cls-3" x="39.76" y="-16.8" width="2.62" height="38.36" transform="translate(10.35 29.74) rotate(-45)"/><rect class="cls-3" x="47.22" y="-16.8" width="2.62" height="38.36" transform="translate(12.53 35.01) rotate(-45)"/><rect class="cls-2" x="43.46" y="-16.8" width="2.62" height="38.36" transform="translate(11.43 32.36) rotate(-45)"/><rect class="cls-3" x="32.3" y="-16.8" width="2.62" height="38.36" transform="translate(8.16 24.46) rotate(-45)"/><rect class="cls-2" x="36" y="-16.8" width="2.62" height="38.36" transform="translate(9.24 27.08) rotate(-45)"/><rect class="cls-3" x="10" y="-16.8" width="2.62" height="38.36" transform="translate(1.63 8.69) rotate(-45)"/><rect class="cls-2" x="13.7" y="-16.8" width="2.62" height="38.36" transform="translate(2.71 11.31) rotate(-45)"/><rect class="cls-3" x="2.54" y="-16.8" width="2.62" height="38.36" transform="translate(-0.56 3.42) rotate(-45)"/><rect class="cls-2" x="6.24" y="-16.8" width="2.62" height="38.36" transform="translate(0.53 6.04) rotate(-45)"/></g><g class="cls-11"><rect class="cls-3" x="72.5" y="-16.8" width="2.62" height="38.36" transform="translate(19.93 52.89) rotate(-45)"/><rect class="cls-2" x="76.2" y="-16.8" width="2.62" height="38.36" transform="translate(21.02 55.51) rotate(-45)"/><rect class="cls-3" x="65.04" y="-16.8" width="2.62" height="38.36" transform="translate(17.75 47.61) rotate(-45)"/><rect class="cls-2" x="68.74" y="-16.8" width="2.62" height="38.36" transform="translate(18.83 50.23) rotate(-45)"/><rect class="cls-3" x="87.38" y="-16.8" width="2.62" height="38.36" transform="translate(24.29 63.41) rotate(-45)"/><rect class="cls-3" x="94.84" y="-16.8" width="2.62" height="38.36" transform="translate(26.48 68.69) rotate(-45)"/><rect class="cls-2" x="91.08" y="-16.8" width="2.62" height="38.36" transform="translate(25.38 66.03) rotate(-45)"/><rect class="cls-3" x="79.92" y="-16.8" width="2.62" height="38.36" transform="translate(22.11 58.14) rotate(-45)"/><rect class="cls-2" x="83.62" y="-16.8" width="2.62" height="38.36" transform="translate(23.19 60.75) rotate(-45)"/><rect class="cls-3" x="57.62" y="-16.8" width="2.62" height="38.36" transform="translate(15.58 42.37) rotate(-45)"/><rect class="cls-2" x="61.32" y="-16.8" width="2.62" height="38.36" transform="translate(16.66 44.98) rotate(-45)"/><rect class="cls-3" x="50.16" y="-16.8" width="2.62" height="38.36" transform="translate(13.39 37.09) rotate(-45)"/><rect class="cls-2" x="53.86" y="-16.8" width="2.62" height="38.36" transform="translate(14.48 39.71) rotate(-45)"/></g><g class="cls-12"><rect class="cls-3" x="112.66" y="30.82" width="2.62" height="38.36" transform="translate(-1.97 95.23) rotate(-45)"/><rect class="cls-3" x="105.24" y="30.82" width="2.62" height="38.36" transform="translate(-4.15 89.99) rotate(-45)"/><rect class="cls-2" x="108.94" y="30.82" width="2.62" height="38.36" transform="translate(-3.06 92.6) rotate(-45)"/><rect class="cls-3" x="97.78" y="30.82" width="2.62" height="38.36" transform="translate(-6.33 84.71) rotate(-45)"/><rect class="cls-2" x="101.48" y="30.82" width="2.62" height="38.36" transform="translate(-5.25 87.33) rotate(-45)"/></g><g class="cls-13"><rect class="cls-3" x="24.88" y="78.44" width="2.62" height="38.36" transform="translate(-61.36 47.11) rotate(-45)"/><rect class="cls-2" x="28.58" y="78.44" width="2.62" height="38.36" transform="translate(-60.27 49.73) rotate(-45)"/><rect class="cls-3" x="17.42" y="78.44" width="2.62" height="38.36" transform="translate(-63.54 41.84) rotate(-45)"/><rect class="cls-2" x="21.12" y="78.44" width="2.62" height="38.36" transform="translate(-62.46 44.45) rotate(-45)"/><rect class="cls-3" x="39.76" y="78.44" width="2.62" height="38.36" transform="translate(-57 57.63) rotate(-45)"/><rect class="cls-3" x="47.22" y="78.44" width="2.62" height="38.36" transform="translate(-54.81 62.91) rotate(-45)"/><rect class="cls-2" x="43.46" y="78.44" width="2.62" height="38.36" transform="translate(-55.91 60.25) rotate(-45)"/><rect class="cls-3" x="32.3" y="78.44" width="2.62" height="38.36" transform="translate(-59.18 52.36) rotate(-45)"/><rect class="cls-2" x="36" y="78.44" width="2.62" height="38.36" transform="translate(-58.1 54.98) rotate(-45)"/><rect class="cls-3" x="10" y="78.44" width="2.62" height="38.36" transform="translate(-65.71 36.59) rotate(-45)"/><rect class="cls-2" x="13.7" y="78.44" width="2.62" height="38.36" transform="translate(-64.63 39.21) rotate(-45)"/><rect class="cls-3" x="2.54" y="78.44" width="2.62" height="38.36" transform="translate(-67.9 31.31) rotate(-45)"/><rect class="cls-2" x="6.24" y="78.44" width="2.62" height="38.36" transform="translate(-66.82 33.93) rotate(-45)"/></g><g class="cls-14"><rect class="cls-3" x="72.5" y="78.44" width="2.62" height="38.36" transform="translate(-47.41 80.78) rotate(-45)"/><rect class="cls-2" x="76.2" y="78.44" width="2.62" height="38.36" transform="translate(-46.32 83.4) rotate(-45)"/><rect class="cls-3" x="65.04" y="78.44" width="2.62" height="38.36" transform="translate(-49.59 75.51) rotate(-45)"/><rect class="cls-2" x="68.74" y="78.44" width="2.62" height="38.36" transform="translate(-48.51 78.12) rotate(-45)"/><rect class="cls-3" x="87.38" y="78.44" width="2.62" height="38.36" transform="translate(-43.05 91.31) rotate(-45)"/><rect class="cls-3" x="94.84" y="78.44" width="2.62" height="38.36" transform="translate(-40.87 96.58) rotate(-45)"/><rect class="cls-2" x="91.08" y="78.44" width="2.62" height="38.36" transform="translate(-41.97 93.92) rotate(-45)"/><rect class="cls-3" x="79.92" y="78.44" width="2.62" height="38.36" transform="translate(-45.24 86.03) rotate(-45)"/><rect class="cls-2" x="83.62" y="78.44" width="2.62" height="38.36" transform="translate(-44.15 88.65) rotate(-45)"/><rect class="cls-3" x="57.62" y="78.44" width="2.62" height="38.36" transform="translate(-51.77 70.26) rotate(-45)"/><rect class="cls-2" x="61.32" y="78.44" width="2.62" height="38.36" transform="translate(-50.68 72.88) rotate(-45)"/><rect class="cls-3" x="50.16" y="78.44" width="2.62" height="38.36" transform="translate(-53.95 64.99) rotate(-45)"/><rect class="cls-2" x="53.86" y="78.44" width="2.62" height="38.36" transform="translate(-52.87 67.6) rotate(-45)"/></g><g class="cls-15"><rect class="cls-3" x="-7.86" y="78.44" width="2.62" height="38.36" transform="translate(-70.94 23.96) rotate(-45)"/><rect class="cls-3" x="-0.4" y="78.44" width="2.62" height="38.36" transform="translate(-68.76 29.24) rotate(-45)"/><rect class="cls-2" x="-4.16" y="78.44" width="2.62" height="38.36" transform="translate(-69.86 26.58) rotate(-45)"/><rect class="cls-3" x="-15.32" y="78.44" width="2.62" height="38.36" transform="translate(-73.13 18.69) rotate(-45)"/><rect class="cls-2" x="-11.62" y="78.44" width="2.62" height="38.36" transform="translate(-72.05 21.3) rotate(-45)"/></g><g class="cls-16"><rect class="cls-3" x="112.66" y="78.44" width="2.62" height="38.36" transform="translate(-35.65 109.18) rotate(-45)"/><rect class="cls-3" x="105.24" y="78.44" width="2.62" height="38.36" transform="translate(-37.82 103.93) rotate(-45)"/><rect class="cls-2" x="108.94" y="78.44" width="2.62" height="38.36" transform="translate(-36.74 106.55) rotate(-45)"/><rect class="cls-3" x="97.78" y="78.44" width="2.62" height="38.36" transform="translate(-40.01 98.66) rotate(-45)"/><rect class="cls-2" x="101.48" y="78.44" width="2.62" height="38.36" transform="translate(-38.92 101.27) rotate(-45)"/></g><g class="cls-17"><rect class="cls-3" x="112.66" y="-16.8" width="2.62" height="38.36" transform="translate(31.7 81.29) rotate(-45)"/><rect class="cls-3" x="105.24" y="-16.8" width="2.62" height="38.36" transform="translate(29.52 76.04) rotate(-45)"/><rect class="cls-2" x="108.94" y="-16.8" width="2.62" height="38.36" transform="translate(30.61 78.65) rotate(-45)"/><rect class="cls-3" x="97.78" y="-16.8" width="2.62" height="38.36" transform="translate(27.34 70.76) rotate(-45)"/><rect class="cls-2" x="101.48" y="-16.8" width="2.62" height="38.36" transform="translate(28.42 73.38) rotate(-45)"/></g><g class="cls-18"><rect class="cls-3" x="-7.86" y="-16.8" width="2.62" height="38.36" transform="translate(-3.6 -3.93) rotate(-45)"/><rect class="cls-3" x="-0.4" y="-16.8" width="2.62" height="38.36" transform="translate(-1.42 1.34) rotate(-45)"/><rect class="cls-2" x="-4.16" y="-16.8" width="2.62" height="38.36" transform="translate(-2.52 -1.32) rotate(-45)"/><rect class="cls-3" x="-15.32" y="-16.8" width="2.62" height="38.36" transform="translate(-5.79 -9.21) rotate(-45)"/><rect class="cls-2" x="-11.62" y="-16.8" width="2.62" height="38.36" transform="translate(-4.7 -6.59) rotate(-45)"/></g><g class="cls-19"><rect class="cls-3" x="48.69" y="54.63" width="2.62" height="38.36" transform="translate(-37.55 56.97) rotate(-45)"/><rect class="cls-2" x="52.39" y="54.63" width="2.62" height="38.36" transform="translate(-36.46 59.59) rotate(-45)"/><rect class="cls-3" x="41.23" y="54.63" width="2.62" height="38.36" transform="translate(-39.73 51.7) rotate(-45)"/><rect class="cls-2" x="44.93" y="54.63" width="2.62" height="38.36" transform="translate(-38.65 54.32) rotate(-45)"/><rect class="cls-3" x="63.57" y="54.63" width="2.62" height="38.36" transform="translate(-33.19 67.5) rotate(-45)"/><rect class="cls-3" x="71.03" y="54.63" width="2.62" height="38.36" transform="translate(-31 72.77) rotate(-45)"/><rect class="cls-2" x="67.27" y="54.63" width="2.62" height="38.36" transform="translate(-32.1 70.11) rotate(-45)"/><rect class="cls-3" x="56.11" y="54.63" width="2.62" height="38.36" transform="translate(-35.37 62.22) rotate(-45)"/><rect class="cls-2" x="59.81" y="54.63" width="2.62" height="38.36" transform="translate(-34.29 64.84) rotate(-45)"/><rect class="cls-3" x="33.81" y="54.63" width="2.62" height="38.36" transform="translate(-41.91 46.45) rotate(-45)"/><rect class="cls-2" x="37.51" y="54.63" width="2.62" height="38.36" transform="translate(-40.82 49.07) rotate(-45)"/><rect class="cls-3" x="26.35" y="54.63" width="2.62" height="38.36" transform="translate(-44.09 41.18) rotate(-45)"/><rect class="cls-2" x="30.05" y="54.63" width="2.62" height="38.36" transform="translate(-43.01 43.79) rotate(-45)"/></g><g class="cls-20"><rect class="cls-3" x="96.31" y="54.63" width="2.62" height="38.36" transform="translate(-23.6 90.65) rotate(-45)"/><rect class="cls-2" x="100.01" y="54.63" width="2.62" height="38.36" transform="translate(-22.52 93.26) rotate(-45)"/><rect class="cls-3" x="88.85" y="54.63" width="2.62" height="38.36" transform="translate(-25.78 85.37) rotate(-45)"/><rect class="cls-2" x="92.55" y="54.63" width="2.62" height="38.36" transform="translate(-24.7 87.99) rotate(-45)"/><rect class="cls-3" x="111.19" y="54.63" width="2.62" height="38.36" transform="translate(-19.24 101.17) rotate(-45)"/><rect class="cls-3" x="103.73" y="54.63" width="2.62" height="38.36" transform="translate(-21.43 95.89) rotate(-45)"/><rect class="cls-2" x="107.43" y="54.63" width="2.62" height="38.36" transform="translate(-20.34 98.51) rotate(-45)"/><rect class="cls-3" x="81.43" y="54.63" width="2.62" height="38.36" transform="translate(-27.96 80.12) rotate(-45)"/><rect class="cls-2" x="85.13" y="54.63" width="2.62" height="38.36" transform="translate(-26.87 82.74) rotate(-45)"/><rect class="cls-3" x="73.97" y="54.63" width="2.62" height="38.36" transform="translate(-30.14 74.85) rotate(-45)"/><rect class="cls-2" x="77.67" y="54.63" width="2.62" height="38.36" transform="translate(-29.06 77.46) rotate(-45)"/></g><g class="cls-21"><rect class="cls-3" x="1.07" y="54.63" width="2.62" height="38.36" transform="translate(-51.49 23.3) rotate(-45)"/><rect class="cls-2" x="4.77" y="54.63" width="2.62" height="38.36" transform="translate(-50.41 25.92) rotate(-45)"/><rect class="cls-3" x="-6.39" y="54.63" width="2.62" height="38.36" transform="translate(-53.68 18.03) rotate(-45)"/><rect class="cls-2" x="-2.69" y="54.63" width="2.62" height="38.36" transform="translate(-52.6 20.64) rotate(-45)"/><rect class="cls-3" x="15.95" y="54.63" width="2.62" height="38.36" transform="translate(-47.14 33.82) rotate(-45)"/><rect class="cls-3" x="23.41" y="54.63" width="2.62" height="38.36" transform="translate(-44.95 39.1) rotate(-45)"/><rect class="cls-2" x="19.65" y="54.63" width="2.62" height="38.36" transform="translate(-46.05 36.44) rotate(-45)"/><rect class="cls-3" x="8.49" y="54.63" width="2.62" height="38.36" transform="translate(-49.32 28.55) rotate(-45)"/><rect class="cls-2" x="12.19" y="54.63" width="2.62" height="38.36" transform="translate(-48.24 31.17) rotate(-45)"/><rect class="cls-3" x="-13.81" y="54.63" width="2.62" height="38.36" transform="translate(-55.85 12.78) rotate(-45)"/><rect class="cls-2" x="-10.11" y="54.63" width="2.62" height="38.36" transform="translate(-54.77 15.4) rotate(-45)"/></g></svg>