<svg id="plaid_horiz_copy" data-name="plaid_horiz copy" xmlns="http://www.w3.org/2000/svg" xmlns:xlink="http://www.w3.org/1999/xlink" width="100" height="100" viewBox="0 0 100 100"><defs><style>.cls-1{fill:none;}.cls-2{fill:#00ac65;}.cls-3{fill:#e9662c;}.cls-4{clip-path:url(#clip-path);}.cls-5{clip-path:url(#clip-path-2);}.cls-6{clip-path:url(#clip-path-3);}.cls-7{clip-path:url(#clip-path-4);}.cls-8{clip-path:url(#clip-path-5);}.cls-9{clip-path:url(#clip-path-6);}.cls-10{clip-path:url(#clip-path-7);}.cls-11{clip-path:url(#clip-path-8);}.cls-12{clip-path:url(#clip-path-9);}.cls-13{clip-path:url(#clip-path-10);}.cls-14{clip-path:url(#clip-path-11);}.cls-15{clip-path:url(#clip-path-12);}.cls-16{clip-path:url(#clip-path-13);}.cls-17{clip-path:url(#clip-path-14);}.cls-18{clip-path:url(#clip-path-15);}.cls-19{clip-path:url(#clip-path-16);}.cls-20{clip-path:url(#clip-path-17);}.cls-21{clip-path:url(#clip-path-18);}.cls-22{clip-path:url(#clip-path-19);}.cls-23{clip-path:url(#clip-path-20);}</style><clipPath id="clip-path"><rect class="cls-1" x="54.93" y="21.26" width="23.81" height="23.81" transform="translate(43.03 -37.55) rotate(45)"/></clipPath><clipPath id="clip-path-2"><rect class="cls-1" x="88.6" y="54.93" width="23.81" height="23.81" transform="translate(76.7 -51.49) rotate(45)"/></clipPath><clipPath id="clip-path-3"><rect class="cls-1" x="21.26" y="-12.41" width="23.81" height="23.81" transform="translate(9.35 -23.6) rotate(45)"/></clipPath><clipPath id="clip-path-4"><rect class="cls-1" x="88.6" y="-12.41" width="23.81" height="23.81" transform="translate(29.08 -71.22) rotate(45)"/></clipPath><clipPath id="clip-path-5"><rect class="cls-1" x="54.93" y="-46.08" width="23.81" height="23.81" transform="translate(-4.59 -57.27) rotate(45)"/></clipPath><clipPath id="clip-path-6"><rect class="cls-1" x="21.26" y="21.26" width="23.81" height="23.81" transform="translate(33.16 -13.74) rotate(45)"/></clipPath><clipPath id="clip-path-7"><rect class="cls-1" x="54.93" y="54.93" width="23.81" height="23.81" transform="translate(66.84 -27.68) rotate(45)"/></clipPath><clipPath id="clip-path-8"><rect class="cls-1" x="-12.41" y="-12.41" width="23.81" height="23.81" transform="translate(-0.51 0.21) rotate(45)"/></clipPath><clipPath id="clip-path-9"><rect class="cls-1" x="54.93" y="-12.41" width="23.81" height="23.81" transform="translate(19.22 -47.41) rotate(45)"/></clipPath><clipPath id="clip-path-10"><rect class="cls-1" x="88.6" y="21.26" width="23.81" height="23.81" transform="translate(52.89 -61.36) rotate(45)"/></clipPath><clipPath id="clip-path-11"><rect class="cls-1" x="88.6" y="88.6" width="23.81" height="23.81" transform="translate(100.51 -41.63) rotate(45)"/></clipPath><clipPath id="clip-path-12"><rect class="cls-1" x="-12.41" y="54.93" width="23.81" height="23.81" transform="translate(47.11 19.93) rotate(45)"/></clipPath><clipPath id="clip-path-13"><rect class="cls-1" x="21.26" y="88.6" width="23.81" height="23.81" transform="translate(80.78 5.99) rotate(45)"/></clipPath><clipPath id="clip-path-14"><rect class="cls-1" x="54.93" y="122.27" width="23.81" height="23.81" transform="translate(114.45 -7.96) rotate(45)"/></clipPath><clipPath id="clip-path-15"><rect class="cls-1" x="21.26" y="-46.08" width="23.81" height="23.81" transform="translate(-14.45 -33.46) rotate(45)"/></clipPath><clipPath id="clip-path-16"><rect class="cls-1" x="-12.41" y="88.6" width="23.81" height="23.81" transform="translate(70.92 29.8) rotate(45)"/></clipPath><clipPath id="clip-path-17"><rect class="cls-1" x="21.26" y="122.27" width="23.81" height="23.81" transform="translate(104.59 15.85) rotate(45)"/></clipPath><clipPath id="clip-path-18"><rect class="cls-1" x="21.26" y="54.93" width="23.81" height="23.81" transform="translate(56.97 -3.87) rotate(45)"/></clipPath><clipPath id="clip-path-19"><rect class="cls-1" x="54.93" y="88.6" width="23.81" height="23.81" transform="translate(90.65 -17.82) rotate(45)"/></clipPath><clipPath id="clip-path-20"><rect class="cls-1" x="-12.41" y="21.26" width="23.81" height="23.81" transform="translate(23.3 10.07) rotate(45)"/></clipPath></defs><title>Artboard 1</title><rect class="cls-2" x="-9.55" y="-9.77" width="119.09" height="119.09" transform="translate(49.84 -20.78) rotate(45)"/><rect class="cls-3" x="38.1" y="38.1" width="23.81" height="23.81" transform="translate(50 -20.71) rotate(45)"/><rect class="cls-2" x="38.1" y="4.42" width="23.81" height="23.81" transform="translate(26.19 -30.57) rotate(45)"/><rect class="cls-2" x="71.77" y="38.1" width="23.81" height="23.81" transform="translate(59.86 -44.52) rotate(45)"/><rect class="cls-2" x="4.42" y="38.1" width="23.81" height="23.81" transform="translate(40.14 3.1) rotate(45)"/><rect class="cls-2" x="38.1" y="71.77" width="23.81" height="23.81" transform="translate(73.81 -10.85) rotate(45)"/><rect class="cls-3" x="4.42" y="4.42" width="23.81" height="23.81" transform="translate(16.33 -6.76) rotate(45)"/><rect class="cls-3" x="71.77" y="71.77" width="23.81" height="23.81" transform="translate(83.67 -34.66) rotate(45)"/><rect class="cls-3" x="4.42" y="71.77" width="23.81" height="23.81" transform="translate(63.95 12.96) rotate(45)"/><rect class="cls-3" x="71.77" y="4.42" width="23.81" height="23.81" transform="translate(36.05 -54.38) rotate(45)"/><g class="cls-4"><rect class="cls-2" x="65.53" y="13.99" width="2.62" height="38.36"/><rect class="cls-3" x="68.14" y="16.6" width="2.62" height="38.36"/><rect class="cls-2" x="60.25" y="8.71" width="2.62" height="38.36"/><rect class="cls-3" x="62.87" y="11.33" width="2.62" height="38.36"/><rect class="cls-2" x="76.05" y="24.51" width="2.62" height="38.36"/><rect class="cls-2" x="81.32" y="29.78" width="2.62" height="38.36"/><rect class="cls-3" x="78.67" y="27.12" width="2.62" height="38.36"/><rect class="cls-2" x="70.77" y="19.23" width="2.62" height="38.36"/><rect class="cls-3" x="73.39" y="21.85" width="2.62" height="38.36"/><rect class="cls-2" x="55" y="3.46" width="2.62" height="38.36"/><rect class="cls-3" x="57.62" y="6.08" width="2.62" height="38.36"/><rect class="cls-2" x="49.73" y="-1.81" width="2.62" height="38.36"/><rect class="cls-3" x="52.35" y="0.8" width="2.62" height="38.36"/></g><g class="cls-5"><rect class="cls-2" x="99.2" y="47.66" width="2.62" height="38.36"/><rect class="cls-2" x="93.92" y="42.38" width="2.62" height="38.36"/><rect class="cls-3" x="96.54" y="45" width="2.62" height="38.36"/><rect class="cls-2" x="88.68" y="37.13" width="2.62" height="38.36"/><rect class="cls-3" x="91.29" y="39.75" width="2.62" height="38.36"/><rect class="cls-2" x="83.4" y="31.86" width="2.62" height="38.36"/><rect class="cls-3" x="86.02" y="34.48" width="2.62" height="38.36"/></g><g class="cls-6"><rect class="cls-2" x="31.85" y="-19.69" width="2.62" height="38.36"/><rect class="cls-3" x="34.47" y="-17.07" width="2.62" height="38.36"/><rect class="cls-2" x="26.58" y="-24.96" width="2.62" height="38.36"/><rect class="cls-3" x="29.2" y="-22.35" width="2.62" height="38.36"/><rect class="cls-2" x="42.38" y="-9.16" width="2.62" height="38.36"/><rect class="cls-2" x="47.65" y="-3.89" width="2.62" height="38.36"/><rect class="cls-3" x="44.99" y="-6.55" width="2.62" height="38.36"/><rect class="cls-2" x="37.1" y="-14.44" width="2.62" height="38.36"/><rect class="cls-3" x="39.72" y="-11.82" width="2.62" height="38.36"/><rect class="cls-2" x="21.33" y="-30.21" width="2.62" height="38.36"/><rect class="cls-3" x="23.95" y="-27.59" width="2.62" height="38.36"/><rect class="cls-2" x="16.06" y="-35.48" width="2.62" height="38.36"/><rect class="cls-3" x="18.67" y="-32.87" width="2.62" height="38.36"/></g><g class="cls-7"><rect class="cls-2" x="99.2" y="-19.69" width="2.62" height="38.36"/><rect class="cls-2" x="93.92" y="-24.96" width="2.62" height="38.36"/><rect class="cls-3" x="96.54" y="-22.35" width="2.62" height="38.36"/><rect class="cls-2" x="88.68" y="-30.21" width="2.62" height="38.36"/><rect class="cls-3" x="91.29" y="-27.59" width="2.62" height="38.36"/><rect class="cls-2" x="83.4" y="-35.48" width="2.62" height="38.36"/><rect class="cls-3" x="86.02" y="-32.87" width="2.62" height="38.36"/></g><g class="cls-8"><rect class="cls-2" x="81.32" y="-37.56" width="2.62" height="38.36"/></g><g class="cls-9"><rect class="cls-2" x="31.85" y="13.99" width="2.62" height="38.36"/><rect class="cls-3" x="34.47" y="16.6" width="2.62" height="38.36"/><rect class="cls-2" x="26.58" y="8.71" width="2.62" height="38.36"/><rect class="cls-3" x="29.2" y="11.33" width="2.62" height="38.36"/><rect class="cls-2" x="42.38" y="24.51" width="2.62" height="38.36"/><rect class="cls-2" x="47.65" y="29.78" width="2.62" height="38.36"/><rect class="cls-3" x="44.99" y="27.12" width="2.62" height="38.36"/><rect class="cls-2" x="37.1" y="19.23" width="2.62" height="38.36"/><rect class="cls-3" x="39.72" y="21.85" width="2.62" height="38.36"/><rect class="cls-2" x="21.33" y="3.46" width="2.62" height="38.36"/><rect class="cls-3" x="23.95" y="6.08" width="2.62" height="38.36"/><rect class="cls-2" x="16.06" y="-1.81" width="2.62" height="38.36"/><rect class="cls-3" x="18.67" y="0.8" width="2.62" height="38.36"/></g><g class="cls-10"><rect class="cls-2" x="65.53" y="47.66" width="2.62" height="38.36"/><rect class="cls-3" x="68.14" y="50.27" width="2.62" height="38.36"/><rect class="cls-2" x="60.25" y="42.38" width="2.62" height="38.36"/><rect class="cls-3" x="62.87" y="45" width="2.62" height="38.36"/><rect class="cls-2" x="76.05" y="58.18" width="2.62" height="38.36"/><rect class="cls-2" x="81.32" y="63.45" width="2.62" height="38.36"/><rect class="cls-3" x="78.67" y="60.8" width="2.62" height="38.36"/><rect class="cls-2" x="70.77" y="52.9" width="2.62" height="38.36"/><rect class="cls-3" x="73.39" y="55.52" width="2.62" height="38.36"/><rect class="cls-2" x="55" y="37.13" width="2.62" height="38.36"/><rect class="cls-3" x="57.62" y="39.75" width="2.62" height="38.36"/><rect class="cls-2" x="49.73" y="31.86" width="2.62" height="38.36"/><rect class="cls-3" x="52.35" y="34.48" width="2.62" height="38.36"/></g><g class="cls-11"><rect class="cls-2" x="-1.82" y="-19.69" width="2.62" height="38.36"/><rect class="cls-3" x="0.8" y="-17.07" width="2.62" height="38.36"/><rect class="cls-2" x="8.71" y="-9.16" width="2.62" height="38.36"/><rect class="cls-2" x="13.98" y="-3.89" width="2.62" height="38.36"/><rect class="cls-3" x="11.32" y="-6.55" width="2.62" height="38.36"/><rect class="cls-2" x="3.43" y="-14.44" width="2.62" height="38.36"/><rect class="cls-3" x="6.05" y="-11.82" width="2.62" height="38.36"/></g><g class="cls-12"><rect class="cls-2" x="65.53" y="-19.69" width="2.62" height="38.36"/><rect class="cls-3" x="68.14" y="-17.07" width="2.62" height="38.36"/><rect class="cls-2" x="60.25" y="-24.96" width="2.62" height="38.36"/><rect class="cls-3" x="62.87" y="-22.35" width="2.62" height="38.36"/><rect class="cls-2" x="76.05" y="-9.16" width="2.62" height="38.36"/><rect class="cls-2" x="81.32" y="-3.89" width="2.62" height="38.36"/><rect class="cls-3" x="78.67" y="-6.55" width="2.62" height="38.36"/><rect class="cls-2" x="70.77" y="-14.44" width="2.62" height="38.36"/><rect class="cls-3" x="73.39" y="-11.82" width="2.62" height="38.36"/><rect class="cls-2" x="55" y="-30.21" width="2.62" height="38.36"/><rect class="cls-3" x="57.62" y="-27.59" width="2.62" height="38.36"/><rect class="cls-2" x="49.73" y="-35.48" width="2.62" height="38.36"/><rect class="cls-3" x="52.35" y="-32.87" width="2.62" height="38.36"/></g><g class="cls-13"><rect class="cls-2" x="99.2" y="13.99" width="2.62" height="38.36"/><rect class="cls-2" x="93.92" y="8.71" width="2.62" height="38.36"/><rect class="cls-3" x="96.54" y="11.33" width="2.62" height="38.36"/><rect class="cls-2" x="88.68" y="3.46" width="2.62" height="38.36"/><rect class="cls-3" x="91.29" y="6.08" width="2.62" height="38.36"/><rect class="cls-2" x="83.4" y="-1.81" width="2.62" height="38.36"/><rect class="cls-3" x="86.02" y="0.8" width="2.62" height="38.36"/></g><g class="cls-14"><rect class="cls-2" x="99.2" y="81.33" width="2.62" height="38.36"/><rect class="cls-2" x="93.92" y="76.05" width="2.62" height="38.36"/><rect class="cls-3" x="96.54" y="78.67" width="2.62" height="38.36"/><rect class="cls-2" x="88.68" y="70.81" width="2.62" height="38.36"/><rect class="cls-3" x="91.29" y="73.42" width="2.62" height="38.36"/><rect class="cls-2" x="83.4" y="65.53" width="2.62" height="38.36"/><rect class="cls-3" x="86.02" y="68.15" width="2.62" height="38.36"/></g><g class="cls-15"><rect class="cls-2" x="-1.82" y="47.66" width="2.62" height="38.36"/><rect class="cls-3" x="0.8" y="50.27" width="2.62" height="38.36"/><rect class="cls-2" x="8.71" y="58.18" width="2.62" height="38.36"/><rect class="cls-2" x="13.98" y="63.45" width="2.62" height="38.36"/><rect class="cls-3" x="11.32" y="60.8" width="2.62" height="38.36"/><rect class="cls-2" x="3.43" y="52.9" width="2.62" height="38.36"/><rect class="cls-3" x="6.05" y="55.52" width="2.62" height="38.36"/></g><g class="cls-16"><rect class="cls-2" x="31.85" y="81.33" width="2.62" height="38.36"/><rect class="cls-3" x="34.47" y="83.95" width="2.62" height="38.36"/><rect class="cls-2" x="26.58" y="76.05" width="2.62" height="38.36"/><rect class="cls-3" x="29.2" y="78.67" width="2.62" height="38.36"/><rect class="cls-2" x="42.38" y="91.85" width="2.62" height="38.36"/><rect class="cls-2" x="47.65" y="97.13" width="2.62" height="38.36"/><rect class="cls-3" x="44.99" y="94.47" width="2.62" height="38.36"/><rect class="cls-2" x="37.1" y="86.58" width="2.62" height="38.36"/><rect class="cls-3" x="39.72" y="89.19" width="2.62" height="38.36"/><rect class="cls-2" x="21.33" y="70.81" width="2.62" height="38.36"/><rect class="cls-3" x="23.95" y="73.42" width="2.62" height="38.36"/><rect class="cls-2" x="16.06" y="65.53" width="2.62" height="38.36"/><rect class="cls-3" x="18.67" y="68.15" width="2.62" height="38.36"/></g><g class="cls-17"><rect class="cls-2" x="49.73" y="99.2" width="2.62" height="38.36"/></g><g class="cls-18"><rect class="cls-2" x="47.65" y="-37.56" width="2.62" height="38.36"/></g><g class="cls-19"><rect class="cls-2" x="-1.82" y="81.33" width="2.62" height="38.36"/><rect class="cls-3" x="0.8" y="83.95" width="2.62" height="38.36"/><rect class="cls-2" x="8.71" y="91.85" width="2.62" height="38.36"/><rect class="cls-2" x="13.98" y="97.13" width="2.62" height="38.36"/><rect class="cls-3" x="11.32" y="94.47" width="2.62" height="38.36"/><rect class="cls-2" x="3.43" y="86.58" width="2.62" height="38.36"/><rect class="cls-3" x="6.05" y="89.19" width="2.62" height="38.36"/></g><g class="cls-20"><rect class="cls-2" x="16.06" y="99.2" width="2.62" height="38.36"/></g><g class="cls-21"><rect class="cls-2" x="31.85" y="47.66" width="2.62" height="38.36"/><rect class="cls-3" x="34.47" y="50.27" width="2.62" height="38.36"/><rect class="cls-2" x="26.58" y="42.38" width="2.62" height="38.36"/><rect class="cls-3" x="29.2" y="45" width="2.62" height="38.36"/><rect class="cls-2" x="42.38" y="58.18" width="2.62" height="38.36"/><rect class="cls-2" x="47.65" y="63.45" width="2.62" height="38.36"/><rect class="cls-3" x="44.99" y="60.8" width="2.62" height="38.36"/><rect class="cls-2" x="37.1" y="52.9" width="2.62" height="38.36"/><rect class="cls-3" x="39.72" y="55.52" width="2.62" height="38.36"/><rect class="cls-2" x="21.33" y="37.13" width="2.62" height="38.36"/><rect class="cls-3" x="23.95" y="39.75" width="2.62" height="38.36"/><rect class="cls-2" x="16.06" y="31.86" width="2.62" height="38.36"/><rect class="cls-3" x="18.67" y="34.48" width="2.62" height="38.36"/></g><g class="cls-22"><rect class="cls-2" x="65.53" y="81.33" width="2.62" height="38.36"/><rect class="cls-3" x="68.14" y="83.95" width="2.62" height="38.36"/><rect class="cls-2" x="60.25" y="76.05" width="2.62" height="38.36"/><rect class="cls-3" x="62.87" y="78.67" width="2.62" height="38.36"/><rect class="cls-2" x="76.05" y="91.85" width="2.62" height="38.36"/><rect class="cls-2" x="81.32" y="97.13" width="2.62" height="38.36"/><rect class="cls-3" x="78.67" y="94.47" width="2.62" height="38.36"/><rect class="cls-2" x="70.77" y="86.58" width="2.62" height="38.36"/><rect class="cls-3" x="73.39" y="89.19" width="2.62" height="38.36"/><rect class="cls-2" x="55" y="70.81" width="2.62" height="38.36"/><rect class="cls-3" x="57.62" y="73.42" width="2.62" height="38.36"/><rect class="cls-2" x="49.73" y="65.53" width="2.62" height="38.36"/><rect class="cls-3" x="52.35" y="68.15" width="2.62" height="38.36"/></g><g class="cls-23"><rect class="cls-2" x="-1.82" y="13.99" width="2.62" height="38.36"/><rect class="cls-3" x="0.8" y="16.6" width="2.62" height="38.36"/><rect class="cls-2" x="8.71" y="24.51" width="2.62" height="38.36"/><rect class="cls-2" x="13.98" y="29.78" width="2.62" height="38.36"/><rect class="cls-3" x="11.32" y="27.12" width="2.62" height="38.36"/><rect class="cls-2" x="3.43" y="19.23" width="2.62" height="38.36"/><rect class="cls-3" x="6.05" y="21.85" width="2.62" height="38.36"/></g></svg>